#!OML:ASF F:\VICON\USERDATA\INSTALL\rory3\rory3.ASF
:FULLY-SPECIFIED
:DEGREES
1085
root 0.785554 15.4677 3.61402 9.81512 -49.7343 14.4726
lowerback 4.49715 8.91298 7.35964
upperback 5.36073 12.0921 -3.95971
thorax 5.588 6.50135 -7.9395
lowerneck -2.25293 -4.73929 -4.57889
upperneck 51.7034 -13.1819 9.82492
head 24.5039 -5.12162 4.13494
rclavicle 1.43125e-014 -9.54166e-015
rhumerus -46.9659 55.4833 -130.436
rradius 90.089
rwrist -28.6376
rhand 26.8275 -27.1788
rfingers 7.12502
rthumb 50.8335 -47.9527
lclavicle 1.43125e-014 -9.54166e-015
lhumerus -11.1277 -77.7493 91.4992
lradius 100.372
lwrist 28.6811
lhand -6.01911 -21.4187
lfingers 7.12502
lthumb 19.814 7.59138
rfemur -68.0099 -8.70701 10.574
rtibia 87.5827
rfoot -10.3315 -12.3882
rtoes -31.126
lfemur -57.6332 -23.2645 -27.38
ltibia 61.1103
lfoot -22.9203 5.78918
ltoes 9.35199
1086
root 0.776353 15.4693 3.62181 9.16875 -49.8771 15.2086
lowerback 4.25164 8.92293 7.06424
upperback 5.49063 12.096 -4.17484
thorax 5.8525 6.51147 -7.95523
lowerneck -2.43741 -4.72206 -4.31076
upperneck 51.7723 -13.1444 9.63841
head 24.5596 -5.06205 3.97389
rclavicle -6.83819e-014 3.02153e-014
rhumerus -46.7327 55.542 -130.418
rradius 90.1592
rwrist -28.6946
rhand 27.1726 -27.4577
rfingers 7.12502
rthumb 51.1479 -48.0562
lclavicle -6.83819e-014 3.02153e-014
lhumerus -10.5009 -77.6812 90.7124
lradius 100.357
lwrist 28.7464
lhand -5.91853 -21.51
lfingers 7.12502
lthumb 19.9107 7.49002
rfemur -67.908 -8.8437 10.0524
rtibia 87.6157
rfoot -9.98318 -12.45
rtoes -31.9086
lfemur -57.3212 -23.2831 -27.9964
ltibia 60.9838
lfoot -22.9833 6.16696
ltoes 7.83439
1087
root 0.769836 15.4695 3.61702 8.96048 -49.9834 15.3776
lowerback 4.24865 8.96038 6.99018
upperback 5.51527 12.1458 -4.20879
thorax 5.88268 6.53606 -7.94476
lowerneck -2.43118 -4.70368 -4.13489
upperneck 51.7686 -13.0802 9.50222
head 24.4638 -5.00916 3.86441
rclavicle 2.54444e-014 1.43125e-014
rhumerus -46.7679 55.5089 -130.428
rradius 90.2808
rwrist -28.7282
rhand 27.248 -27.8297
rfingers 7.12502
rthumb 51.2167 -48.3894
lclavicle 2.54444e-014 1.43125e-014
lhumerus -10.4561 -77.6111 90.6649
lradius 100.376
lwrist 28.8223
lhand -5.21753 -21.2727
lfingers 7.12502
lthumb 20.5844 7.65592
rfemur -67.8256 -8.76375 9.90702
rtibia 87.625
rfoot -10.1179 -12.3326
rtoes -32.0828
lfemur -57.1105 -23.1128 -28.2538
ltibia 60.9195
lfoot -22.9826 6.36708
ltoes 7.32281
1088
root 0.766479 15.4709 3.60584 9.08066 -49.9681 15.186
lowerback 4.35087 8.97455 7.09902
upperback 5.45189 12.1691 -4.13642
thorax 5.76852 6.54441 -7.94752
lowerneck -2.28446 -4.68747 -4.15108
upperneck 51.7553 -13.0234 9.47361
head 24.3604 -4.99522 3.86272
rclavicle 7.95139e-016 -7.95139e-015
rhumerus -47.3321 55.2791 -130.714
rradius 90.4772
rwrist -28.4908
rhand 27.728 -28.3244
rfingers 7.12502
rthumb 51.6532 -48.6338
lclavicle 7.95139e-016 -7.95139e-015
lhumerus -10.877 -77.5685 91.1627
lradius 100.367
lwrist 28.9939
lhand -4.43571 -21.0956
lfingers 7.12502
lthumb 21.3355 7.74993
rfemur -67.6937 -8.54824 9.82766
rtibia 87.6677
rfoot -11.4737 -11.3457
rtoes -28.0976
lfemur -57.0959 -23.0189 -28.1328
ltibia 60.9229
lfoot -22.9261 6.34693
ltoes 7.71162
1089
root 0.766524 15.4708 3.58953 9.35647 -49.8529 14.8921
lowerback 4.50111 8.95065 7.19676
upperback 5.32118 12.1427 -4.01529
thorax 5.52945 6.51836 -7.9126
lowerneck -2.08006 -4.66558 -4.319
upperneck 51.7227 -12.9922 9.58317
head 24.2813 -5.01543 3.9716
rclavicle 1.11319e-014 -2.06736e-014
rhumerus -47.649 55.2623 -130.864
rradius 90.4148
rwrist -28.4517
rhand 27.6796 -28.5145
rfingers 7.12502
rthumb 51.6092 -48.8495
lclavicle 1.11319e-014 -2.06736e-014
lhumerus -11.8371 -77.4915 92.2342
lradius 100.363
lwrist 29.2174
lhand -4.56058 -20.8431
lfingers 7.12502
lthumb 21.2156 8.01591
rfemur -67.8709 -8.51371 10.3393
rtibia 87.6108
rfoot -10.0603 -12.6739
rtoes -32.8991
lfemur -57.2886 -23.0764 -27.7858
ltibia 61.0039
lfoot -22.8856 6.309
ltoes 8.05344
1090
root 0.76873 15.4681 3.5685 9.71625 -49.7484 14.4823
lowerback 4.73293 8.92194 7.4101
upperback 5.20443 12.1179 -3.91014
thorax 5.29148 6.49997 -7.96805
lowerneck -1.96372 -4.65129 -4.43085
upperneck 51.6594 -12.9917 9.71435
head 24.2103 -5.03136 4.07037
rclavicle -1.66979e-014 3.33958e-014
rhumerus -48.1426 55.2643 -131.091
rradius 90.4977
rwrist -28.3574
rhand 26.8814 -28.6133
rfingers 7.12502
rthumb 50.8826 -49.36
lclavicle -1.66979e-014 3.33958e-014
lhumerus -12.2586 -77.4711 92.7383
lradius 100.381
lwrist 29.3669
lhand -4.87458 -20.3355
lfingers 7.12502
lthumb 20.9139 8.55711
rfemur -67.9589 -8.30426 10.589
rtibia 87.6509
rfoot -10.7692 -12.3469
rtoes -30.4782
lfemur -57.5247 -23.0026 -27.3913
ltibia 61.1159
lfoot -22.8469 6.20079
ltoes 8.2549
1091
root 0.769269 15.4578 3.55194 9.82103 -49.6774 14.3511
lowerback 4.89815 8.87971 7.51777
upperback 5.17992 12.0713 -3.87576
thorax 5.1794 6.47573 -8.02348
lowerneck -1.98595 -4.63039 -4.54213
upperneck 51.6139 -12.9747 9.82058
head 24.2109 -5.03953 4.15637
rclavicle -9.46215e-014 1.90833e-014
rhumerus -48.2651 55.3487 -131.107
rradius 90.53
rwrist -28.3708
rhand 27.3554 -29.6864
rfingers 7.12502
rthumb 51.3143 -50.1906
lclavicle -9.46215e-014 1.90833e-014
lhumerus -11.9215 -77.4649 92.4404
lradius 100.385
lwrist 29.4091
lhand -4.8227 -19.9683
lfingers 7.12502
lthumb 20.9638 8.91883
rfemur -68.1442 -8.26278 10.9016
rtibia 87.6618
rfoot -9.80668 -13.166
rtoes -33.1218
lfemur -57.7152 -22.945 -27.1897
ltibia 61.2266
lfoot -22.8485 5.99991
ltoes 8.14434
1092
root 0.768489 15.4559 3.54036 9.80114 -49.6752 14.4389
lowerback 4.85396 8.8416 7.43825
upperback 5.20472 12.0147 -3.87034
thorax 5.19958 6.4446 -7.97041
lowerneck -2.08853 -4.5891 -4.68088
upperneck 51.6086 -12.9392 9.93492
head 24.2977 -5.04631 4.26049
rclavicle -7.15625e-014 2.70347e-014
rhumerus -48.359 55.5212 -131.137
rradius 90.5799
rwrist -28.3744
rhand 27.6021 -30.0333
rfingers 7.12502
rthumb 51.5387 -50.409
lclavicle -7.15625e-014 2.70347e-014
lhumerus -11.644 -77.3403 92.1919
lradius 100.392
lwrist 29.3942
lhand -4.88595 -19.8433
lfingers 7.12502
lthumb 20.903 9.05047
rfemur -68.2125 -8.19099 10.8175
rtibia 87.6946
rfoot -10.1452 -12.9194
rtoes -31.997
lfemur -57.8583 -22.9615 -27.1134
ltibia 61.2747
lfoot -22.9247 5.84583
ltoes 8.35308
1093
root 0.763861 15.4594 3.53763 9.80424 -49.7932 14.5126
lowerback 4.67747 8.87685 7.36054
upperback 5.21741 12.052 -3.89005
thorax 5.30647 6.46407 -7.91542
lowerneck -2.15589 -4.59187 -4.7388
upperneck 51.6096 -13.0138 10.0755
head 24.402 -5.0782 4.34506
rclavicle -1.61413e-013 3.81667e-014
rhumerus -48.4149 55.5254 -131.256
rradius 90.5312
rwrist -28.2281
rhand 26.7727 -29.1579
rfingers 7.12502
rthumb 50.7835 -49.9593
lclavicle -1.61413e-013 3.81667e-014
lhumerus -11.3864 -77.3161 91.8734
lradius 100.455
lwrist 29.4267
lhand -5.29647 -20.0609
lfingers 7.12502
lthumb 20.5085 8.87588
rfemur -68.2169 -8.07915 10.7083
rtibia 87.6735
rfoot -10.5953 -12.5626
rtoes -30.6481
lfemur -57.8904 -22.9419 -27.1464
ltibia 61.2995
lfoot -22.9965 5.96329
ltoes 8.9478
1094
root 0.757713 15.4608 3.53954 9.8199 -49.8449 14.5227
lowerback 4.55417 8.92255 7.39726
upperback 5.19998 12.1095 -3.89734
thorax 5.37843 6.49674 -7.91777
lowerneck -2.12503 -4.62799 -4.69231
upperneck 51.5913 -13.0923 10.0953
head 24.3859 -5.09696 4.33088
rclavicle 3.73715e-014 2.38542e-014
rhumerus -48.6631 55.2508 -131.363
rradius 90.6769
rwrist -28.0232
rhand 26.4839 -28.6202
rfingers 7.12502
rthumb 50.5199 -49.5656
lclavicle 3.73715e-014 2.38542e-014
lhumerus -11.5699 -77.4033 91.9941
lradius 100.5
lwrist 29.3812
lhand -5.66652 -20.5803
lfingers 7.12502
lthumb 20.1529 8.3944
rfemur -68.2031 -8.03573 10.7345
rtibia 87.6357
rfoot -10.3929 -12.7883
rtoes -31.2689
lfemur -57.8714 -22.9878 -27.1605
ltibia 61.3201
lfoot -22.9672 6.18243
ltoes 8.9133
1095
root 0.751991 15.4603 3.54174 9.85563 -49.8438 14.5221
lowerback 4.4486 8.93926 7.43396
upperback 5.16413 12.1289 -3.89211
thorax 5.40953 6.50767 -7.91492
lowerneck -2.05317 -4.62272 -4.49222
upperneck 51.5728 -13.0244 9.9092
head 24.223 -5.04114 4.18423
rclavicle -6.44062e-014 4.92986e-014
rhumerus -48.9232 55.0228 -131.448
rradius 90.8565
rwrist -27.8985
rhand 26.8397 -28.7648
rfingers 7.12502
rthumb 50.8446 -49.5325
lclavicle -6.44062e-014 4.92986e-014
lhumerus -12.6193 -77.4288 93.0506
lradius 100.405
lwrist 29.0438
lhand -6.14322 -21.2074
lfingers 7.12502
lthumb 19.6947 7.81491
rfemur -68.2357 -8.0819 10.8249
rtibia 87.609
rfoot -9.87858 -13.1713
rtoes -32.2189
lfemur -57.8824 -23.0536 -27.1461
ltibia 61.3396
lfoot -22.9305 6.37632
ltoes 8.16338
